<mxfile host="app.diagrams.net" modified="2024-01-15T14:34:19.859Z" agent="Mozilla/5.0 (X11; Ubuntu; Linux x86_64; rv:121.0) Gecko/20100101 Firefox/121.0" etag="04PysGKwL07NN3K96Drt" version="22.1.18" type="device">
  <diagram name="Page-1" id="E5AxCyOhZKjhce2MvHdj">
    <mxGraphModel dx="2924" dy="1115" grid="1" gridSize="10" guides="1" tooltips="1" connect="1" arrows="1" fold="1" page="1" pageScale="1" pageWidth="850" pageHeight="1100" math="0" shadow="0">
      <root>
        <mxCell id="0" />
        <mxCell id="1" parent="0" />
        <mxCell id="ir3scniFZbBamXwvJh3l-74" value="&lt;div&gt;&lt;br&gt;&lt;/div&gt;&lt;div&gt;&lt;br&gt;&lt;/div&gt;&lt;div&gt;&lt;br&gt;&lt;/div&gt;&lt;div&gt;&lt;br&gt;&lt;/div&gt;&lt;div&gt;&lt;br&gt;&lt;/div&gt;&lt;div&gt;&lt;br&gt;&lt;/div&gt;&lt;div&gt;&lt;br&gt;&lt;/div&gt;&lt;div&gt;&lt;br&gt;&lt;/div&gt;&lt;div&gt;&lt;br&gt;&lt;/div&gt;&lt;div&gt;&lt;br&gt;&lt;/div&gt;&lt;div&gt;&lt;br&gt;&lt;/div&gt;&lt;div&gt;&lt;br&gt;&lt;/div&gt;&lt;div&gt;&lt;br&gt;&lt;/div&gt;&lt;div&gt;&lt;br&gt;&lt;/div&gt;&lt;div&gt;&lt;br&gt;&lt;/div&gt;&lt;div&gt;&lt;br&gt;&lt;/div&gt;&lt;div&gt;&lt;br&gt;&lt;/div&gt;&lt;div&gt;&lt;br&gt;&lt;/div&gt;&lt;div&gt;packet Forwarder&lt;/div&gt;" style="rounded=1;whiteSpace=wrap;html=1;dashed=1;movable=0;resizable=0;rotatable=0;deletable=0;editable=0;locked=1;connectable=0;strokeWidth=2;" parent="1" vertex="1">
          <mxGeometry x="222.5" y="1020" width="1347.5" height="840" as="geometry" />
        </mxCell>
        <mxCell id="ir3scniFZbBamXwvJh3l-37" value="&lt;div style=&quot;font-size: 16px;&quot;&gt;&lt;font style=&quot;font-size: 16px;&quot;&gt;&lt;br&gt;&lt;/font&gt;&lt;/div&gt;&lt;div style=&quot;font-size: 16px;&quot;&gt;&lt;font style=&quot;font-size: 16px;&quot;&gt;&lt;br&gt;&lt;/font&gt;&lt;/div&gt;&lt;div style=&quot;font-size: 16px;&quot;&gt;&lt;font style=&quot;font-size: 16px;&quot;&gt;&lt;br&gt;&lt;/font&gt;&lt;/div&gt;&lt;div style=&quot;font-size: 16px;&quot;&gt;&lt;font style=&quot;font-size: 16px;&quot;&gt;&lt;br&gt;&lt;/font&gt;&lt;/div&gt;&lt;div style=&quot;font-size: 16px;&quot;&gt;&lt;font style=&quot;font-size: 16px;&quot;&gt;&lt;br&gt;&lt;/font&gt;&lt;/div&gt;&lt;div style=&quot;font-size: 16px;&quot;&gt;&lt;font style=&quot;font-size: 16px;&quot;&gt;&lt;br&gt;&lt;/font&gt;&lt;/div&gt;&lt;div style=&quot;font-size: 16px;&quot;&gt;&lt;font style=&quot;font-size: 16px;&quot;&gt;&lt;br&gt;&lt;/font&gt;&lt;/div&gt;&lt;div style=&quot;font-size: 16px;&quot;&gt;&lt;font style=&quot;font-size: 16px;&quot;&gt;&lt;br&gt;&lt;/font&gt;&lt;/div&gt;&lt;div style=&quot;font-size: 16px;&quot;&gt;&lt;font style=&quot;font-size: 16px;&quot;&gt;&lt;br&gt;&lt;/font&gt;&lt;/div&gt;&lt;div style=&quot;font-size: 16px;&quot;&gt;&lt;font style=&quot;font-size: 16px;&quot;&gt;&lt;br&gt;&lt;/font&gt;&lt;/div&gt;&lt;div style=&quot;font-size: 16px;&quot;&gt;&lt;font style=&quot;font-size: 16px;&quot;&gt;&lt;br&gt;&lt;/font&gt;&lt;/div&gt;&lt;div style=&quot;font-size: 16px;&quot;&gt;&lt;font style=&quot;font-size: 16px;&quot;&gt;&lt;br&gt;&lt;/font&gt;&lt;/div&gt;&lt;div style=&quot;font-size: 16px;&quot;&gt;&lt;font style=&quot;font-size: 16px;&quot;&gt;&lt;br&gt;&lt;/font&gt;&lt;/div&gt;&lt;div style=&quot;font-size: 16px;&quot;&gt;&lt;font style=&quot;font-size: 16px;&quot;&gt;&lt;br&gt;&lt;/font&gt;&lt;/div&gt;&lt;div style=&quot;font-size: 16px;&quot;&gt;&lt;font style=&quot;font-size: 16px;&quot;&gt;&lt;br&gt;&lt;/font&gt;&lt;/div&gt;&lt;div style=&quot;font-size: 16px;&quot;&gt;&lt;font style=&quot;font-size: 16px;&quot;&gt;&lt;br&gt;&lt;/font&gt;&lt;/div&gt;&lt;div style=&quot;font-size: 16px;&quot;&gt;&lt;font style=&quot;font-size: 16px;&quot;&gt;&lt;br&gt;&lt;/font&gt;&lt;/div&gt;&lt;div style=&quot;font-size: 16px;&quot;&gt;&lt;font style=&quot;font-size: 16px;&quot;&gt;&lt;br&gt;&lt;/font&gt;&lt;/div&gt;&lt;div style=&quot;font-size: 16px;&quot;&gt;&lt;font style=&quot;font-size: 16px;&quot;&gt;&lt;b&gt;packet Forwarder&lt;/b&gt;&lt;/font&gt;&lt;/div&gt;" style="rounded=1;whiteSpace=wrap;html=1;dashed=1;movable=0;resizable=0;rotatable=0;deletable=0;editable=0;locked=1;connectable=0;strokeWidth=2;" parent="1" vertex="1">
          <mxGeometry x="720" y="1090" width="840" height="740" as="geometry" />
        </mxCell>
        <mxCell id="ir3scniFZbBamXwvJh3l-42" value="" style="rounded=1;whiteSpace=wrap;html=1;dashed=1;fillColor=#e1d5e7;strokeColor=#9673a6;movable=0;resizable=0;rotatable=0;deletable=0;editable=0;locked=1;connectable=0;strokeWidth=2;" parent="1" vertex="1">
          <mxGeometry x="1120" y="1105" width="420" height="250" as="geometry" />
        </mxCell>
        <mxCell id="tfgUsdt2ixnzsKASo8Zw-3" style="edgeStyle=orthogonalEdgeStyle;rounded=0;orthogonalLoop=1;jettySize=auto;html=1;exitX=0.5;exitY=0;exitDx=0;exitDy=0;entryX=0.75;entryY=1;entryDx=0;entryDy=0;" edge="1" parent="1" source="ir3scniFZbBamXwvJh3l-1" target="tfgUsdt2ixnzsKASo8Zw-1">
          <mxGeometry relative="1" as="geometry" />
        </mxCell>
        <mxCell id="ir3scniFZbBamXwvJh3l-1" value="Node 2" style="ellipse;whiteSpace=wrap;html=1;aspect=fixed;" parent="1" vertex="1">
          <mxGeometry x="130" y="1380" width="60" height="60" as="geometry" />
        </mxCell>
        <mxCell id="ir3scniFZbBamXwvJh3l-2" value="Node 1" style="ellipse;whiteSpace=wrap;html=1;aspect=fixed;" parent="1" vertex="1">
          <mxGeometry x="60" y="1380" width="60" height="60" as="geometry" />
        </mxCell>
        <mxCell id="ir3scniFZbBamXwvJh3l-5" value="&lt;div&gt;-parse the LoRa-M packet&lt;br&gt;&lt;/div&gt;&lt;div&gt;-is sender registered&lt;br&gt;&lt;/div&gt;&lt;div&gt;-verify MIC&lt;/div&gt;&lt;div&gt;-verify FcntUP&lt;/div&gt;&lt;div&gt;-decrypt the payload (application data)&lt;br&gt;&lt;/div&gt;" style="rounded=0;whiteSpace=wrap;html=1;" parent="1" vertex="1">
          <mxGeometry x="500" y="1225" width="150" height="110" as="geometry" />
        </mxCell>
        <mxCell id="ir3scniFZbBamXwvJh3l-6" value="&lt;div&gt;-parse the LoRa-M packet&lt;/div&gt;&lt;div&gt;-verify MIC&lt;br&gt;&lt;/div&gt;" style="rounded=0;whiteSpace=wrap;html=1;" parent="1" vertex="1">
          <mxGeometry x="500" y="1145" width="150" height="60" as="geometry" />
        </mxCell>
        <mxCell id="ir3scniFZbBamXwvJh3l-18" style="edgeStyle=orthogonalEdgeStyle;rounded=0;orthogonalLoop=1;jettySize=auto;html=1;exitX=1;exitY=0.5;exitDx=0;exitDy=0;exitPerimeter=0;" parent="1" source="ir3scniFZbBamXwvJh3l-8" target="ir3scniFZbBamXwvJh3l-17" edge="1">
          <mxGeometry relative="1" as="geometry" />
        </mxCell>
        <mxCell id="ir3scniFZbBamXwvJh3l-8" value="NETWORK INPUT QUEUE" style="shape=cylinder3;whiteSpace=wrap;html=1;boundedLbl=1;backgroundOutline=1;size=15;" parent="1" vertex="1">
          <mxGeometry x="240" y="1185" width="70" height="90" as="geometry" />
        </mxCell>
        <mxCell id="ir3scniFZbBamXwvJh3l-19" style="edgeStyle=orthogonalEdgeStyle;rounded=0;orthogonalLoop=1;jettySize=auto;html=1;exitX=1;exitY=0.25;exitDx=0;exitDy=0;" parent="1" source="ir3scniFZbBamXwvJh3l-17" target="ir3scniFZbBamXwvJh3l-6" edge="1">
          <mxGeometry relative="1" as="geometry" />
        </mxCell>
        <mxCell id="ir3scniFZbBamXwvJh3l-20" style="edgeStyle=orthogonalEdgeStyle;rounded=0;orthogonalLoop=1;jettySize=auto;html=1;exitX=1;exitY=0.75;exitDx=0;exitDy=0;" parent="1" source="ir3scniFZbBamXwvJh3l-17" target="ir3scniFZbBamXwvJh3l-5" edge="1">
          <mxGeometry relative="1" as="geometry" />
        </mxCell>
        <mxCell id="ir3scniFZbBamXwvJh3l-17" value="dataQueueCheck" style="rounded=1;whiteSpace=wrap;html=1;fillColor=#f5f5f5;fontColor=#333333;strokeColor=#666666;" parent="1" vertex="1">
          <mxGeometry x="330" y="1200" width="120" height="60" as="geometry" />
        </mxCell>
        <mxCell id="ir3scniFZbBamXwvJh3l-80" style="edgeStyle=orthogonalEdgeStyle;rounded=0;orthogonalLoop=1;jettySize=auto;html=1;exitX=1;exitY=0.5;exitDx=0;exitDy=0;exitPerimeter=0;entryX=0;entryY=0.5;entryDx=0;entryDy=0;" parent="1" source="ir3scniFZbBamXwvJh3l-22" target="ir3scniFZbBamXwvJh3l-77" edge="1">
          <mxGeometry relative="1" as="geometry" />
        </mxCell>
        <mxCell id="ir3scniFZbBamXwvJh3l-22" value="NETWORK SERVER INPUT QUEUE" style="shape=cylinder3;whiteSpace=wrap;html=1;boundedLbl=1;backgroundOutline=1;size=15;" parent="1" vertex="1">
          <mxGeometry x="732.5" y="1185" width="70" height="100" as="geometry" />
        </mxCell>
        <mxCell id="ir3scniFZbBamXwvJh3l-25" style="edgeStyle=orthogonalEdgeStyle;rounded=0;orthogonalLoop=1;jettySize=auto;html=1;exitX=1;exitY=0.5;exitDx=0;exitDy=0;entryX=0;entryY=0;entryDx=0;entryDy=67.5;entryPerimeter=0;" parent="1" source="ir3scniFZbBamXwvJh3l-5" target="ir3scniFZbBamXwvJh3l-22" edge="1">
          <mxGeometry relative="1" as="geometry">
            <Array as="points">
              <mxPoint x="700" y="1280" />
              <mxPoint x="700" y="1253" />
            </Array>
          </mxGeometry>
        </mxCell>
        <mxCell id="ir3scniFZbBamXwvJh3l-26" style="edgeStyle=orthogonalEdgeStyle;rounded=0;orthogonalLoop=1;jettySize=auto;html=1;exitX=1;exitY=0.5;exitDx=0;exitDy=0;entryX=0;entryY=0;entryDx=0;entryDy=32.5;entryPerimeter=0;" parent="1" source="ir3scniFZbBamXwvJh3l-6" target="ir3scniFZbBamXwvJh3l-22" edge="1">
          <mxGeometry relative="1" as="geometry">
            <Array as="points">
              <mxPoint x="700" y="1175" />
              <mxPoint x="700" y="1218" />
            </Array>
          </mxGeometry>
        </mxCell>
        <mxCell id="ir3scniFZbBamXwvJh3l-93" style="edgeStyle=orthogonalEdgeStyle;rounded=0;orthogonalLoop=1;jettySize=auto;html=1;exitX=0;exitY=0;exitDx=0;exitDy=32.5;exitPerimeter=0;entryX=1;entryY=0.5;entryDx=0;entryDy=0;" parent="1" source="ir3scniFZbBamXwvJh3l-32" target="ir3scniFZbBamXwvJh3l-92" edge="1">
          <mxGeometry relative="1" as="geometry" />
        </mxCell>
        <mxCell id="ir3scniFZbBamXwvJh3l-94" style="edgeStyle=orthogonalEdgeStyle;rounded=0;orthogonalLoop=1;jettySize=auto;html=1;exitX=0;exitY=0;exitDx=0;exitDy=67.5;exitPerimeter=0;entryX=1;entryY=0.5;entryDx=0;entryDy=0;" parent="1" source="ir3scniFZbBamXwvJh3l-32" target="ir3scniFZbBamXwvJh3l-91" edge="1">
          <mxGeometry relative="1" as="geometry" />
        </mxCell>
        <mxCell id="ir3scniFZbBamXwvJh3l-32" value="NETWORK SERVER OUTPUT QUEUE" style="shape=cylinder3;whiteSpace=wrap;html=1;boundedLbl=1;backgroundOutline=1;size=15;" parent="1" vertex="1">
          <mxGeometry x="797.5" y="1490" width="70" height="100" as="geometry" />
        </mxCell>
        <mxCell id="ir3scniFZbBamXwvJh3l-43" value="Uplink Registration Request" style="text;html=1;strokeColor=none;fillColor=none;align=center;verticalAlign=middle;whiteSpace=wrap;rounded=0;" parent="1" vertex="1">
          <mxGeometry x="905" y="1140" width="60" height="30" as="geometry" />
        </mxCell>
        <mxCell id="ir3scniFZbBamXwvJh3l-44" value="Uplink Registration Request" style="text;html=1;strokeColor=none;fillColor=none;align=center;verticalAlign=middle;whiteSpace=wrap;rounded=0;" parent="1" vertex="1">
          <mxGeometry x="435" y="1140" width="60" height="30" as="geometry" />
        </mxCell>
        <mxCell id="ir3scniFZbBamXwvJh3l-45" value="Uplink Data" style="text;whiteSpace=wrap;html=1;" parent="1" vertex="1">
          <mxGeometry x="430" y="1300" width="65" height="30" as="geometry" />
        </mxCell>
        <mxCell id="ir3scniFZbBamXwvJh3l-46" value="&lt;div&gt;Uplink Data&lt;/div&gt;" style="text;whiteSpace=wrap;html=1;" parent="1" vertex="1">
          <mxGeometry x="990" y="1215" width="60" height="40" as="geometry" />
        </mxCell>
        <mxCell id="ir3scniFZbBamXwvJh3l-56" style="edgeStyle=orthogonalEdgeStyle;rounded=0;orthogonalLoop=1;jettySize=auto;html=1;entryX=0;entryY=0.25;entryDx=0;entryDy=0;" parent="1" source="ir3scniFZbBamXwvJh3l-48" target="ir3scniFZbBamXwvJh3l-49" edge="1">
          <mxGeometry relative="1" as="geometry">
            <Array as="points">
              <mxPoint x="1290" y="1155" />
              <mxPoint x="1290" y="1285" />
            </Array>
          </mxGeometry>
        </mxCell>
        <mxCell id="ir3scniFZbBamXwvJh3l-48" value="form_join" style="rounded=1;whiteSpace=wrap;html=1;fillColor=#f5f5f5;fontColor=#333333;strokeColor=#666666;" parent="1" vertex="1">
          <mxGeometry x="1140" y="1125" width="120" height="60" as="geometry" />
        </mxCell>
        <mxCell id="ir3scniFZbBamXwvJh3l-49" value="push" style="rounded=1;whiteSpace=wrap;html=1;fillColor=#f5f5f5;fontColor=#333333;strokeColor=#666666;" parent="1" vertex="1">
          <mxGeometry x="1395" y="1270" width="120" height="60" as="geometry" />
        </mxCell>
        <mxCell id="ir3scniFZbBamXwvJh3l-68" style="edgeStyle=orthogonalEdgeStyle;rounded=0;orthogonalLoop=1;jettySize=auto;html=1;exitX=0;exitY=0.75;exitDx=0;exitDy=0;entryX=1;entryY=0.75;entryDx=0;entryDy=0;" parent="1" source="ir3scniFZbBamXwvJh3l-50" target="ir3scniFZbBamXwvJh3l-53" edge="1">
          <mxGeometry relative="1" as="geometry">
            <Array as="points">
              <mxPoint x="1360" y="1240" />
              <mxPoint x="1360" y="1315" />
            </Array>
          </mxGeometry>
        </mxCell>
        <mxCell id="ir3scniFZbBamXwvJh3l-50" value="pull" style="rounded=1;whiteSpace=wrap;html=1;fillColor=#f5f5f5;fontColor=#333333;strokeColor=#666666;" parent="1" vertex="1">
          <mxGeometry x="1395" y="1195" width="120" height="60" as="geometry" />
        </mxCell>
        <mxCell id="ir3scniFZbBamXwvJh3l-62" style="edgeStyle=orthogonalEdgeStyle;rounded=0;orthogonalLoop=1;jettySize=auto;html=1;exitX=1;exitY=0.5;exitDx=0;exitDy=0;entryX=0;entryY=0.5;entryDx=0;entryDy=0;" parent="1" source="ir3scniFZbBamXwvJh3l-51" target="ir3scniFZbBamXwvJh3l-49" edge="1">
          <mxGeometry relative="1" as="geometry">
            <Array as="points">
              <mxPoint x="1280" y="1225" />
              <mxPoint x="1280" y="1300" />
            </Array>
          </mxGeometry>
        </mxCell>
        <mxCell id="ir3scniFZbBamXwvJh3l-51" value="form_phypld" style="rounded=1;whiteSpace=wrap;html=1;fillColor=#f5f5f5;fontColor=#333333;strokeColor=#666666;" parent="1" vertex="1">
          <mxGeometry x="1140" y="1195" width="120" height="60" as="geometry" />
        </mxCell>
        <mxCell id="ir3scniFZbBamXwvJh3l-53" value="parse_pullresp" style="rounded=1;whiteSpace=wrap;html=1;fillColor=#f5f5f5;fontColor=#333333;strokeColor=#666666;" parent="1" vertex="1">
          <mxGeometry x="1140" y="1270" width="120" height="60" as="geometry" />
        </mxCell>
        <mxCell id="tfgUsdt2ixnzsKASo8Zw-17" style="edgeStyle=orthogonalEdgeStyle;rounded=0;orthogonalLoop=1;jettySize=auto;html=1;exitX=1;exitY=0.5;exitDx=0;exitDy=0;endArrow=none;endFill=0;" edge="1" parent="1" source="ir3scniFZbBamXwvJh3l-54">
          <mxGeometry relative="1" as="geometry">
            <mxPoint x="1710" y="1230" as="targetPoint" />
          </mxGeometry>
        </mxCell>
        <mxCell id="ir3scniFZbBamXwvJh3l-54" value="TX_ACK" style="rounded=1;whiteSpace=wrap;html=1;fillColor=#f5f5f5;fontColor=#333333;strokeColor=#666666;" parent="1" vertex="1">
          <mxGeometry x="1395" y="1120" width="120" height="60" as="geometry" />
        </mxCell>
        <mxCell id="ir3scniFZbBamXwvJh3l-58" style="edgeStyle=orthogonalEdgeStyle;rounded=0;orthogonalLoop=1;jettySize=auto;html=1;exitX=0;exitY=0.5;exitDx=0;exitDy=0;entryX=1;entryY=0.5;entryDx=0;entryDy=0;startArrow=classic;startFill=1;" parent="1" source="ir3scniFZbBamXwvJh3l-57" target="ir3scniFZbBamXwvJh3l-49" edge="1">
          <mxGeometry relative="1" as="geometry">
            <Array as="points">
              <mxPoint x="1710" y="1225" />
              <mxPoint x="1710" y="1300" />
            </Array>
          </mxGeometry>
        </mxCell>
        <mxCell id="ir3scniFZbBamXwvJh3l-59" style="edgeStyle=orthogonalEdgeStyle;rounded=0;orthogonalLoop=1;jettySize=auto;html=1;exitX=0;exitY=0.5;exitDx=0;exitDy=0;startArrow=classic;startFill=1;" parent="1" source="ir3scniFZbBamXwvJh3l-57" target="ir3scniFZbBamXwvJh3l-50" edge="1">
          <mxGeometry relative="1" as="geometry" />
        </mxCell>
        <mxCell id="ir3scniFZbBamXwvJh3l-57" value="Network Server" style="rounded=1;whiteSpace=wrap;html=1;dashed=1;" parent="1" vertex="1">
          <mxGeometry x="1790" y="1145" width="170" height="160" as="geometry" />
        </mxCell>
        <mxCell id="ir3scniFZbBamXwvJh3l-60" value="(JoinRequest / Data up / JoinAccept)" style="text;html=1;strokeColor=none;fillColor=none;align=center;verticalAlign=middle;whiteSpace=wrap;rounded=0;" parent="1" vertex="1">
          <mxGeometry x="1610" y="1265" width="60" height="30" as="geometry" />
        </mxCell>
        <mxCell id="ir3scniFZbBamXwvJh3l-61" value="(Unconfirmed/Confirmed Data down)" style="text;html=1;strokeColor=none;fillColor=none;align=center;verticalAlign=middle;whiteSpace=wrap;rounded=0;" parent="1" vertex="1">
          <mxGeometry x="1610" y="1195" width="60" height="30" as="geometry" />
        </mxCell>
        <mxCell id="ir3scniFZbBamXwvJh3l-63" value="&amp;nbsp;" style="text;whiteSpace=wrap;html=1;" parent="1" vertex="1">
          <mxGeometry x="1490" y="1370" width="40" height="40" as="geometry" />
        </mxCell>
        <mxCell id="ir3scniFZbBamXwvJh3l-64" value="&lt;font style=&quot;font-size: 14px;&quot;&gt;&lt;b&gt;Mote emulator&lt;/b&gt;&lt;/font&gt;" style="text;html=1;strokeColor=none;fillColor=none;align=center;verticalAlign=middle;whiteSpace=wrap;rounded=0;" parent="1" vertex="1">
          <mxGeometry x="1300" y="1115" width="60" height="30" as="geometry" />
        </mxCell>
        <mxCell id="ir3scniFZbBamXwvJh3l-66" value="" style="endArrow=classic;html=1;rounded=0;exitX=1;exitY=0.5;exitDx=0;exitDy=0;" parent="1" source="ir3scniFZbBamXwvJh3l-67" edge="1">
          <mxGeometry width="50" height="50" relative="1" as="geometry">
            <mxPoint x="1380" y="1225" as="sourcePoint" />
            <mxPoint x="1395" y="1225" as="targetPoint" />
          </mxGeometry>
        </mxCell>
        <mxCell id="ir3scniFZbBamXwvJh3l-69" style="edgeStyle=orthogonalEdgeStyle;rounded=0;orthogonalLoop=1;jettySize=auto;html=1;exitX=0;exitY=0.25;exitDx=0;exitDy=0;entryX=0;entryY=0.5;entryDx=0;entryDy=0;" parent="1" source="ir3scniFZbBamXwvJh3l-50" target="ir3scniFZbBamXwvJh3l-54" edge="1">
          <mxGeometry relative="1" as="geometry">
            <Array as="points">
              <mxPoint x="1380" y="1210" />
              <mxPoint x="1380" y="1150" />
            </Array>
          </mxGeometry>
        </mxCell>
        <mxCell id="ir3scniFZbBamXwvJh3l-67" value="Every 5 seconds" style="text;html=1;strokeColor=none;fillColor=none;align=center;verticalAlign=middle;whiteSpace=wrap;rounded=0;" parent="1" vertex="1">
          <mxGeometry x="1300" y="1210" width="60" height="30" as="geometry" />
        </mxCell>
        <mxCell id="ir3scniFZbBamXwvJh3l-72" value="&amp;nbsp;" style="text;whiteSpace=wrap;html=1;" parent="1" vertex="1">
          <mxGeometry x="230" y="940" width="40" height="40" as="geometry" />
        </mxCell>
        <mxCell id="ir3scniFZbBamXwvJh3l-73" value="&amp;nbsp;" style="text;whiteSpace=wrap;html=1;" parent="1" vertex="1">
          <mxGeometry x="1690" y="990" width="40" height="40" as="geometry" />
        </mxCell>
        <mxCell id="ir3scniFZbBamXwvJh3l-75" value="&lt;font size=&quot;1&quot;&gt;&lt;b&gt;&lt;font style=&quot;font-size: 16px;&quot;&gt;Hardcoded parent&lt;/font&gt;&lt;/b&gt;&lt;/font&gt;" style="text;html=1;strokeColor=none;fillColor=none;align=center;verticalAlign=middle;whiteSpace=wrap;rounded=0;" parent="1" vertex="1">
          <mxGeometry x="790" y="1040" width="60" height="30" as="geometry" />
        </mxCell>
        <mxCell id="ir3scniFZbBamXwvJh3l-81" style="edgeStyle=orthogonalEdgeStyle;rounded=0;orthogonalLoop=1;jettySize=auto;html=1;exitX=1;exitY=0.5;exitDx=0;exitDy=0;entryX=0;entryY=0.5;entryDx=0;entryDy=0;" parent="1" source="ir3scniFZbBamXwvJh3l-76" target="ir3scniFZbBamXwvJh3l-48" edge="1">
          <mxGeometry relative="1" as="geometry" />
        </mxCell>
        <mxCell id="ir3scniFZbBamXwvJh3l-76" value="&lt;div&gt;&lt;br&gt;&lt;/div&gt;&lt;div&gt;-create Mote class for the new node&lt;br&gt;&lt;/div&gt;&lt;div&gt;-update End node parameters dictionary&lt;br&gt;&lt;/div&gt;&lt;div&gt;&lt;br&gt;&lt;/div&gt;" style="rounded=0;whiteSpace=wrap;html=1;" parent="1" vertex="1">
          <mxGeometry x="990" y="1120" width="120" height="70" as="geometry" />
        </mxCell>
        <mxCell id="ir3scniFZbBamXwvJh3l-78" style="edgeStyle=orthogonalEdgeStyle;rounded=0;orthogonalLoop=1;jettySize=auto;html=1;exitX=1;exitY=0.75;exitDx=0;exitDy=0;entryX=0;entryY=0.5;entryDx=0;entryDy=0;" parent="1" source="ir3scniFZbBamXwvJh3l-77" target="ir3scniFZbBamXwvJh3l-51" edge="1">
          <mxGeometry relative="1" as="geometry" />
        </mxCell>
        <mxCell id="ir3scniFZbBamXwvJh3l-82" style="edgeStyle=orthogonalEdgeStyle;rounded=0;orthogonalLoop=1;jettySize=auto;html=1;exitX=1;exitY=0.25;exitDx=0;exitDy=0;entryX=0;entryY=0.5;entryDx=0;entryDy=0;" parent="1" source="ir3scniFZbBamXwvJh3l-77" target="ir3scniFZbBamXwvJh3l-76" edge="1">
          <mxGeometry relative="1" as="geometry" />
        </mxCell>
        <mxCell id="ir3scniFZbBamXwvJh3l-77" value="NSQueueCheck" style="rounded=1;whiteSpace=wrap;html=1;fillColor=#f5f5f5;fontColor=#333333;strokeColor=#666666;" parent="1" vertex="1">
          <mxGeometry x="830" y="1205" width="120" height="60" as="geometry" />
        </mxCell>
        <mxCell id="ir3scniFZbBamXwvJh3l-83" value="Parameters" style="text;html=1;strokeColor=none;fillColor=none;align=center;verticalAlign=middle;whiteSpace=wrap;rounded=0;" parent="1" vertex="1">
          <mxGeometry x="660" y="1215" width="60" height="40" as="geometry" />
        </mxCell>
        <mxCell id="ir3scniFZbBamXwvJh3l-85" value="&amp;nbsp;" style="text;whiteSpace=wrap;html=1;" parent="1" vertex="1">
          <mxGeometry x="820" y="1270" width="40" height="40" as="geometry" />
        </mxCell>
        <mxCell id="ir3scniFZbBamXwvJh3l-86" style="edgeStyle=orthogonalEdgeStyle;rounded=0;orthogonalLoop=1;jettySize=auto;html=1;exitX=0;exitY=0.5;exitDx=0;exitDy=0;entryX=1;entryY=0;entryDx=0;entryDy=32.5;entryPerimeter=0;" parent="1" source="ir3scniFZbBamXwvJh3l-53" target="ir3scniFZbBamXwvJh3l-32" edge="1">
          <mxGeometry relative="1" as="geometry">
            <mxPoint x="900" y="1520" as="targetPoint" />
            <Array as="points">
              <mxPoint x="1100" y="1300" />
              <mxPoint x="1100" y="1523" />
            </Array>
          </mxGeometry>
        </mxCell>
        <mxCell id="ir3scniFZbBamXwvJh3l-87" value="Data down Parameters" style="text;html=1;strokeColor=none;fillColor=none;align=center;verticalAlign=middle;whiteSpace=wrap;rounded=0;" parent="1" vertex="1">
          <mxGeometry x="960" y="1490" width="60" height="40" as="geometry" />
        </mxCell>
        <mxCell id="ir3scniFZbBamXwvJh3l-89" style="edgeStyle=orthogonalEdgeStyle;rounded=0;orthogonalLoop=1;jettySize=auto;html=1;exitX=0;exitY=0.75;exitDx=0;exitDy=0;entryX=1;entryY=0;entryDx=0;entryDy=67.5;entryPerimeter=0;" parent="1" source="ir3scniFZbBamXwvJh3l-49" target="ir3scniFZbBamXwvJh3l-32" edge="1">
          <mxGeometry relative="1" as="geometry">
            <Array as="points">
              <mxPoint x="1370" y="1315" />
              <mxPoint x="1370" y="1558" />
            </Array>
          </mxGeometry>
        </mxCell>
        <mxCell id="ir3scniFZbBamXwvJh3l-90" value="JoinAccept Parameters" style="text;html=1;strokeColor=none;fillColor=none;align=center;verticalAlign=middle;whiteSpace=wrap;rounded=0;" parent="1" vertex="1">
          <mxGeometry x="1150" y="1520" width="60" height="40" as="geometry" />
        </mxCell>
        <mxCell id="ir3scniFZbBamXwvJh3l-91" value="&lt;div&gt;-calculate FCntDown&lt;/div&gt;&lt;div&gt;-encrypt the payload&lt;/div&gt;&lt;div&gt;-calculate the MIC&lt;br&gt;&lt;/div&gt;&lt;div&gt;-build the LoRa-M packet&lt;br&gt;&lt;/div&gt;" style="rounded=0;whiteSpace=wrap;html=1;" parent="1" vertex="1">
          <mxGeometry x="500" y="1540" width="150" height="110" as="geometry" />
        </mxCell>
        <mxCell id="ir3scniFZbBamXwvJh3l-92" value="&lt;div&gt;-calcualte the MIC&lt;/div&gt;&lt;div&gt;-encrypt the fields&lt;br&gt;&lt;/div&gt;&lt;div&gt;-build the LoRa-M packet&lt;/div&gt;" style="rounded=0;whiteSpace=wrap;html=1;" parent="1" vertex="1">
          <mxGeometry x="500" y="1430" width="150" height="60" as="geometry" />
        </mxCell>
        <mxCell id="ir3scniFZbBamXwvJh3l-95" value="Downlink Registration Acknowledgement" style="text;html=1;strokeColor=none;fillColor=none;align=center;verticalAlign=middle;whiteSpace=wrap;rounded=0;" parent="1" vertex="1">
          <mxGeometry x="742.5" y="1445" width="60" height="30" as="geometry" />
        </mxCell>
        <mxCell id="ir3scniFZbBamXwvJh3l-96" value="&lt;div&gt;Downlink&lt;/div&gt;&lt;div&gt;Data&lt;br&gt;&lt;/div&gt;" style="text;html=1;strokeColor=none;fillColor=none;align=center;verticalAlign=middle;whiteSpace=wrap;rounded=0;" parent="1" vertex="1">
          <mxGeometry x="730" y="1570" width="60" height="30" as="geometry" />
        </mxCell>
        <mxCell id="ir3scniFZbBamXwvJh3l-103" style="edgeStyle=orthogonalEdgeStyle;rounded=0;orthogonalLoop=1;jettySize=auto;html=1;exitX=0;exitY=0;exitDx=0;exitDy=60;exitPerimeter=0;entryX=0.5;entryY=1;entryDx=0;entryDy=0;" parent="1" source="ir3scniFZbBamXwvJh3l-97" target="ir3scniFZbBamXwvJh3l-1" edge="1">
          <mxGeometry relative="1" as="geometry" />
        </mxCell>
        <mxCell id="ir3scniFZbBamXwvJh3l-97" value="NODE 2 QUEUE" style="shape=cylinder3;whiteSpace=wrap;html=1;boundedLbl=1;backgroundOutline=1;size=15;" parent="1" vertex="1">
          <mxGeometry x="260" y="1400" width="70" height="90" as="geometry" />
        </mxCell>
        <mxCell id="ir3scniFZbBamXwvJh3l-104" style="edgeStyle=orthogonalEdgeStyle;rounded=0;orthogonalLoop=1;jettySize=auto;html=1;exitX=0;exitY=0.5;exitDx=0;exitDy=0;exitPerimeter=0;entryX=0.5;entryY=1;entryDx=0;entryDy=0;" parent="1" source="ir3scniFZbBamXwvJh3l-98" target="ir3scniFZbBamXwvJh3l-2" edge="1">
          <mxGeometry relative="1" as="geometry" />
        </mxCell>
        <mxCell id="ir3scniFZbBamXwvJh3l-98" value="NODE 1 QUEUE" style="shape=cylinder3;whiteSpace=wrap;html=1;boundedLbl=1;backgroundOutline=1;size=15;" parent="1" vertex="1">
          <mxGeometry x="260" y="1520" width="70" height="90" as="geometry" />
        </mxCell>
        <mxCell id="ir3scniFZbBamXwvJh3l-99" style="edgeStyle=orthogonalEdgeStyle;rounded=0;orthogonalLoop=1;jettySize=auto;html=1;exitX=0;exitY=0.5;exitDx=0;exitDy=0;entryX=1;entryY=0;entryDx=0;entryDy=60;entryPerimeter=0;" parent="1" source="ir3scniFZbBamXwvJh3l-91" target="ir3scniFZbBamXwvJh3l-98" edge="1">
          <mxGeometry relative="1" as="geometry" />
        </mxCell>
        <mxCell id="ir3scniFZbBamXwvJh3l-100" style="edgeStyle=orthogonalEdgeStyle;rounded=0;orthogonalLoop=1;jettySize=auto;html=1;exitX=0;exitY=0.25;exitDx=0;exitDy=0;entryX=1;entryY=0;entryDx=0;entryDy=60;entryPerimeter=0;" parent="1" source="ir3scniFZbBamXwvJh3l-91" target="ir3scniFZbBamXwvJh3l-97" edge="1">
          <mxGeometry relative="1" as="geometry">
            <Array as="points">
              <mxPoint x="460" y="1568" />
              <mxPoint x="460" y="1460" />
            </Array>
          </mxGeometry>
        </mxCell>
        <mxCell id="ir3scniFZbBamXwvJh3l-101" style="edgeStyle=orthogonalEdgeStyle;rounded=0;orthogonalLoop=1;jettySize=auto;html=1;exitX=0;exitY=0.25;exitDx=0;exitDy=0;entryX=1;entryY=0;entryDx=0;entryDy=30;entryPerimeter=0;" parent="1" source="ir3scniFZbBamXwvJh3l-92" target="ir3scniFZbBamXwvJh3l-97" edge="1">
          <mxGeometry relative="1" as="geometry" />
        </mxCell>
        <mxCell id="ir3scniFZbBamXwvJh3l-102" style="edgeStyle=orthogonalEdgeStyle;rounded=0;orthogonalLoop=1;jettySize=auto;html=1;exitX=0;exitY=0.75;exitDx=0;exitDy=0;entryX=1;entryY=0;entryDx=0;entryDy=30;entryPerimeter=0;" parent="1" source="ir3scniFZbBamXwvJh3l-92" target="ir3scniFZbBamXwvJh3l-98" edge="1">
          <mxGeometry relative="1" as="geometry">
            <Array as="points">
              <mxPoint x="415" y="1475" />
              <mxPoint x="415" y="1550" />
            </Array>
          </mxGeometry>
        </mxCell>
        <mxCell id="ir3scniFZbBamXwvJh3l-108" value="gRPC API" style="rounded=1;whiteSpace=wrap;html=1;fillColor=#f5f5f5;fontColor=#333333;strokeColor=#666666;" parent="1" vertex="1">
          <mxGeometry x="1360" y="1680" width="120" height="130" as="geometry" />
        </mxCell>
        <mxCell id="ir3scniFZbBamXwvJh3l-109" value="" style="endArrow=classic;html=1;rounded=0;" parent="1" edge="1">
          <mxGeometry width="50" height="50" relative="1" as="geometry">
            <mxPoint x="1250" y="1699.5800000000002" as="sourcePoint" />
            <mxPoint x="1360" y="1699.5800000000002" as="targetPoint" />
          </mxGeometry>
        </mxCell>
        <mxCell id="ir3scniFZbBamXwvJh3l-110" value="" style="endArrow=classic;html=1;rounded=0;" parent="1" edge="1">
          <mxGeometry width="50" height="50" relative="1" as="geometry">
            <mxPoint x="1250" y="1719.58" as="sourcePoint" />
            <mxPoint x="1360" y="1719.58" as="targetPoint" />
          </mxGeometry>
        </mxCell>
        <mxCell id="ir3scniFZbBamXwvJh3l-111" value="Register HP as Gateway" style="text;html=1;strokeColor=none;fillColor=none;align=center;verticalAlign=middle;whiteSpace=wrap;rounded=0;" parent="1" vertex="1">
          <mxGeometry x="1110" y="1690" width="140" height="20" as="geometry" />
        </mxCell>
        <mxCell id="ir3scniFZbBamXwvJh3l-112" value="Register Nodes" style="text;html=1;strokeColor=none;fillColor=none;align=center;verticalAlign=middle;whiteSpace=wrap;rounded=0;" parent="1" vertex="1">
          <mxGeometry x="1135" y="1710" width="140" height="20" as="geometry" />
        </mxCell>
        <mxCell id="ir3scniFZbBamXwvJh3l-118" style="edgeStyle=orthogonalEdgeStyle;rounded=0;orthogonalLoop=1;jettySize=auto;html=1;exitX=1;exitY=0.5;exitDx=0;exitDy=0;entryX=0.5;entryY=1;entryDx=0;entryDy=0;startArrow=classic;startFill=1;" parent="1" source="ir3scniFZbBamXwvJh3l-108" target="ir3scniFZbBamXwvJh3l-57" edge="1">
          <mxGeometry relative="1" as="geometry">
            <mxPoint x="1324.9999999999995" y="1765" as="sourcePoint" />
          </mxGeometry>
        </mxCell>
        <mxCell id="ir3scniFZbBamXwvJh3l-121" style="edgeStyle=orthogonalEdgeStyle;rounded=0;orthogonalLoop=1;jettySize=auto;html=1;exitX=0.005;exitY=0.846;exitDx=0;exitDy=0;entryX=1;entryY=0.5;entryDx=0;entryDy=0;exitPerimeter=0;" parent="1" source="ir3scniFZbBamXwvJh3l-108" target="ir3scniFZbBamXwvJh3l-122" edge="1">
          <mxGeometry relative="1" as="geometry">
            <mxPoint x="1169.9999999999995" y="1780" as="sourcePoint" />
          </mxGeometry>
        </mxCell>
        <mxCell id="ir3scniFZbBamXwvJh3l-124" style="edgeStyle=orthogonalEdgeStyle;rounded=0;orthogonalLoop=1;jettySize=auto;html=1;exitX=0;exitY=0.5;exitDx=0;exitDy=0;" parent="1" source="ir3scniFZbBamXwvJh3l-122" target="ir3scniFZbBamXwvJh3l-77" edge="1">
          <mxGeometry relative="1" as="geometry" />
        </mxCell>
        <mxCell id="ir3scniFZbBamXwvJh3l-122" value="&lt;div&gt;-create a dictionary of neccessarry parameters for each node&lt;/div&gt;&lt;div&gt;-put in the AppKeys&lt;br&gt;&lt;/div&gt;" style="rounded=0;whiteSpace=wrap;html=1;" parent="1" vertex="1">
          <mxGeometry x="920" y="1760" width="170" height="60" as="geometry" />
        </mxCell>
        <mxCell id="ir3scniFZbBamXwvJh3l-123" value="&amp;nbsp;" style="text;whiteSpace=wrap;html=1;" parent="1" vertex="1">
          <mxGeometry x="580" y="1830" width="40" height="40" as="geometry" />
        </mxCell>
        <mxCell id="tfgUsdt2ixnzsKASo8Zw-4" style="edgeStyle=orthogonalEdgeStyle;rounded=0;orthogonalLoop=1;jettySize=auto;html=1;exitX=0.5;exitY=0;exitDx=0;exitDy=0;" edge="1" parent="1" source="tfgUsdt2ixnzsKASo8Zw-1" target="ir3scniFZbBamXwvJh3l-8">
          <mxGeometry relative="1" as="geometry" />
        </mxCell>
        <mxCell id="tfgUsdt2ixnzsKASo8Zw-1" value="radio interface" style="rounded=1;whiteSpace=wrap;html=1;" vertex="1" parent="1">
          <mxGeometry x="70" y="1265" width="120" height="60" as="geometry" />
        </mxCell>
        <mxCell id="tfgUsdt2ixnzsKASo8Zw-2" style="edgeStyle=orthogonalEdgeStyle;rounded=0;orthogonalLoop=1;jettySize=auto;html=1;exitX=0.5;exitY=0;exitDx=0;exitDy=0;entryX=0.17;entryY=0.976;entryDx=0;entryDy=0;entryPerimeter=0;" edge="1" parent="1" source="ir3scniFZbBamXwvJh3l-2" target="tfgUsdt2ixnzsKASo8Zw-1">
          <mxGeometry relative="1" as="geometry" />
        </mxCell>
        <mxCell id="tfgUsdt2ixnzsKASo8Zw-5" value="868.1MHz" style="text;html=1;strokeColor=none;fillColor=none;align=center;verticalAlign=middle;whiteSpace=wrap;rounded=0;" vertex="1" parent="1">
          <mxGeometry x="130" y="1200" width="60" height="30" as="geometry" />
        </mxCell>
        <mxCell id="tfgUsdt2ixnzsKASo8Zw-6" value="868.1MHz" style="text;html=1;strokeColor=none;fillColor=none;align=center;verticalAlign=middle;whiteSpace=wrap;rounded=0;" vertex="1" parent="1">
          <mxGeometry x="140" y="1540" width="60" height="30" as="geometry" />
        </mxCell>
        <mxCell id="tfgUsdt2ixnzsKASo8Zw-7" value="868.1MHz" style="text;html=1;strokeColor=none;fillColor=none;align=center;verticalAlign=middle;whiteSpace=wrap;rounded=0;" vertex="1" parent="1">
          <mxGeometry x="162.5" y="1460" width="60" height="30" as="geometry" />
        </mxCell>
        <mxCell id="tfgUsdt2ixnzsKASo8Zw-9" value="&amp;nbsp;" style="text;whiteSpace=wrap;html=1;" vertex="1" parent="1">
          <mxGeometry x="-190" y="1310" width="40" height="40" as="geometry" />
        </mxCell>
        <mxCell id="tfgUsdt2ixnzsKASo8Zw-10" value="&lt;div&gt;getProvisionedGateways&lt;/div&gt;&lt;div&gt;getProvisionedDevices&lt;/div&gt;&lt;div&gt;getNodeKeys&lt;br&gt;&lt;/div&gt;" style="text;html=1;strokeColor=none;fillColor=none;align=center;verticalAlign=middle;whiteSpace=wrap;rounded=0;" vertex="1" parent="1">
          <mxGeometry x="1150" y="1740" width="60" height="30" as="geometry" />
        </mxCell>
        <mxCell id="tfgUsdt2ixnzsKASo8Zw-11" value="" style="endArrow=classic;html=1;rounded=0;" edge="1" parent="1">
          <mxGeometry width="50" height="50" relative="1" as="geometry">
            <mxPoint x="1250" y="1740" as="sourcePoint" />
            <mxPoint x="1360" y="1740" as="targetPoint" />
          </mxGeometry>
        </mxCell>
        <mxCell id="tfgUsdt2ixnzsKASo8Zw-12" value="gRPC socket interface" style="text;html=1;strokeColor=none;fillColor=none;align=center;verticalAlign=middle;whiteSpace=wrap;rounded=0;" vertex="1" parent="1">
          <mxGeometry x="1710" y="1705" width="60" height="30" as="geometry" />
        </mxCell>
        <mxCell id="tfgUsdt2ixnzsKASo8Zw-13" value="&amp;nbsp;" style="text;whiteSpace=wrap;html=1;" vertex="1" parent="1">
          <mxGeometry x="860" y="1410" width="40" height="40" as="geometry" />
        </mxCell>
        <mxCell id="tfgUsdt2ixnzsKASo8Zw-14" value="&amp;nbsp;" style="text;whiteSpace=wrap;html=1;" vertex="1" parent="1">
          <mxGeometry x="1900" y="1450" width="40" height="40" as="geometry" />
        </mxCell>
        <mxCell id="tfgUsdt2ixnzsKASo8Zw-15" value="&amp;nbsp;" style="text;whiteSpace=wrap;html=1;" vertex="1" parent="1">
          <mxGeometry x="1700" y="1450" width="40" height="40" as="geometry" />
        </mxCell>
        <mxCell id="tfgUsdt2ixnzsKASo8Zw-16" value="&amp;nbsp;" style="text;whiteSpace=wrap;html=1;" vertex="1" parent="1">
          <mxGeometry x="1510" y="1470" width="40" height="40" as="geometry" />
        </mxCell>
        <mxCell id="tfgUsdt2ixnzsKASo8Zw-19" value="UDP socket interface" style="text;html=1;strokeColor=none;fillColor=none;align=center;verticalAlign=middle;whiteSpace=wrap;rounded=0;" vertex="1" parent="1">
          <mxGeometry x="1720" y="1190" width="60" height="30" as="geometry" />
        </mxCell>
        <mxCell id="tfgUsdt2ixnzsKASo8Zw-20" value="&amp;nbsp;" style="text;whiteSpace=wrap;html=1;" vertex="1" parent="1">
          <mxGeometry x="270" y="750" width="40" height="40" as="geometry" />
        </mxCell>
      </root>
    </mxGraphModel>
  </diagram>
</mxfile>
